# xmcd
#
# Track frame offsets:
#	150
#	21415
#	34736
#	45189
#	67662
#	87206
#	104745
#	119249
#	134732
#	154512
#	184312
#	200451
#	214736
#	232769
#	249611
#	273947
#	291315
#
# Disc length: 4136 seconds
# Revision: 0
# Processed by: cddbd v1.5.2PL0 Copyright (c) Steve Scherf et al.
# Submitted via: dBpowerAMP V12.0
#
DISCID=f8102611
DTITLE=Busk Vidar - Tung ørn flyr lavt - Best of Busk [CD 1)
DYEAR=2015
DGENRE=Blues
TTITLE0=Stompin' Our Feet With Joy
TTITLE1=Boogie Leg
TTITLE2=Working Man Blues
TTITLE3=The Ballad Of Vidar Busk 
TTITLE4=Live My Life Too Fast
TTITLE5=Jelly Roll
TTITLE6=I Came Here To Rock
TTITLE7=24/7
TTITLE8=Get Up Baby
TTITLE9=Lovestruck
TTITLE10=One Way Ticket Man
TTITLE11=Sho’ Nuff
TTITLE12=Red Lipstick
TTITLE13=Hold On
TTITLE14=Shoot Ya Down
TTITLE15=She’s A Babe
TTITLE16=Perleporten
EXTD=
EXTT0=
EXTT1=
EXTT2=
EXTT3=
EXTT4=
EXTT5=
EXTT6=
EXTT7=
EXTT8=
EXTT9=
EXTT10=
EXTT11=
EXTT12=
EXTT13=
EXTT14=
EXTT15=
EXTT16=
PLAYORDER=
